<svg width="220" height="65" viewBox="0 0 220 65" fill="none" xmlns="http://www.w3.org/2000/svg">
<path fill-rule="evenodd" clip-rule="evenodd" d="M43.1023 21.8266L37.2367 27.692L33.8236 24.2789L43.1023 15L52.3841 24.282L48.9711 27.6951L43.1023 21.8266ZM31.4132 26.6897L34.8261 30.1027L31.413 33.5158L28 30.1028L31.4132 26.6897ZM37.2368 32.5127L43.1025 38.3781L48.971 32.5098L52.3859 35.921L52.3843 35.9229L43.1025 45.2047L33.8235 35.926L33.8188 35.9212L37.2368 32.5127ZM58.2044 30.1037L54.7913 33.5168L51.3783 30.1039L54.7914 26.6907L58.2044 30.1037ZM46.5646 30.1012H46.566L43.1027 26.6378L40.5432 29.1973H40.5429L40.249 29.4914L39.6424 30.0981L39.6376 30.1028L39.6424 30.1078L43.1027 33.5681L46.566 30.1047L46.5677 30.1028L46.5646 30.1012ZM70.9485 22.3196H63.5253V38.3361H71.132C72.0301 38.3361 72.8486 38.2448 73.5872 38.0618C74.3258 37.8786 74.9577 37.6042 75.4832 37.2381C76.0088 36.8719 76.4124 36.4141 76.6942 35.8652C76.9759 35.3158 77.1167 34.6752 77.1167 33.9429V33.8973C77.1167 32.8298 76.8507 31.9946 76.3194 31.3917C75.7879 30.7891 75.0589 30.3127 74.1328 29.9616C74.4207 29.8094 74.6896 29.6262 74.9398 29.4124C75.1898 29.1992 75.4098 28.9513 75.5989 28.6688C75.7886 28.3866 75.9403 28.0705 76.0539 27.7194C76.1677 27.3687 76.2242 26.9643 76.2242 26.5068V26.461C76.2242 25.3782 75.859 24.4705 75.1283 23.7381C74.1841 22.7924 72.7909 22.3196 70.9485 22.3196ZM72.0597 28.3945C71.6024 28.6617 70.9845 28.7948 70.2064 28.7948H66.9572V25.4085H70.4351C71.1823 25.4085 71.7544 25.5497 72.1511 25.8319C72.5476 26.1144 72.746 26.5223 72.746 27.0559V27.1018C72.746 27.6965 72.5173 28.1275 72.0597 28.3945ZM72.9751 34.8243C72.5323 35.1068 71.9225 35.2475 71.1446 35.2475L66.9572 35.2478V31.724H71.0301C71.9454 31.724 72.6089 31.8805 73.0209 32.1928C73.4326 32.5058 73.6387 32.929 73.6387 33.4629V33.5085C73.6387 34.1034 73.4173 34.5421 72.9751 34.8243ZM81.5378 22.3196H85.0618V38.3366H81.5378V22.3196ZM93.6477 22.3196H90.399V38.3366H93.8767V28.1545L101.634 38.3366H104.631V22.3196H101.153V32.1816L93.6477 22.3196ZM115.298 22.2052H118.547L125.412 38.3364H121.728L120.264 34.7442H113.491L112.026 38.3364H108.434L115.298 22.2052ZM119.005 31.632L116.877 26.4381L114.75 31.632H119.005ZM132.466 22.3196H129.217V38.3366H132.695V28.1545L140.451 38.3366H143.449V22.3196H139.971V32.1816L132.466 22.3196ZM156.13 38.611C154.955 38.611 153.865 38.3973 152.858 37.9705C151.851 37.5437 150.982 36.96 150.25 36.22C149.517 35.4802 148.945 34.6068 148.534 33.6001C148.122 32.5932 147.916 31.5178 147.916 30.3736V30.3281C147.916 29.184 148.122 28.1126 148.534 27.1133C148.945 26.1142 149.517 25.237 150.25 24.482C150.982 23.727 151.859 23.1318 152.881 22.6971C153.902 22.2624 155.032 22.0451 156.268 22.0451C157.014 22.0451 157.697 22.1064 158.315 22.2281C158.933 22.3505 159.493 22.5179 159.997 22.7315C160.501 22.9452 160.965 23.2045 161.393 23.5094C161.819 23.8147 162.216 24.1502 162.582 24.5163L160.34 27.1018C159.714 26.5376 159.078 26.0949 158.43 25.7747C157.781 25.4546 157.053 25.2943 156.244 25.2943C155.573 25.2943 154.951 25.4241 154.38 25.6834C153.808 25.9427 153.316 26.301 152.904 26.7585C152.492 27.2161 152.172 27.7464 151.943 28.3488C151.714 28.9516 151.6 29.5959 151.6 30.2823V30.3278C151.6 31.0142 151.714 31.6628 151.943 32.2726C152.172 32.883 152.488 33.4167 152.892 33.8742C153.296 34.3318 153.785 34.6944 154.356 34.9613C154.929 35.2285 155.558 35.3616 156.244 35.3616C157.16 35.3616 157.933 35.1939 158.567 34.8583C159.2 34.5231 159.829 34.0653 160.454 33.4854L162.697 35.7507C162.285 36.1933 161.857 36.59 161.416 36.9404C160.973 37.2916 160.489 37.5926 159.962 37.8446C159.436 38.096 158.86 38.2871 158.235 38.4164C157.609 38.5459 156.908 38.611 156.13 38.611ZM178.903 22.3196H166.844V38.3366H179.018V35.202H170.322V31.8383H177.873V28.7037H170.322V25.4545H178.903V22.3196Z" fill="#62626B"/>
</svg>
