<svg width="240" height="60" viewBox="0 0 240 60" fill="none" xmlns="http://www.w3.org/2000/svg">
<g clip-path="url(#clip0_6006_71826)">
<path fill-rule="evenodd" clip-rule="evenodd" d="M240 8.10811C240 3.63081 236.418 0 232 0H69.3976L59.2176 6.64622H14.068L1.128 18.6486H0V51.8919C0 56.37 3.5816 60 8 60H219.628L240 43.7838V8.10811Z" fill="black"/>
<path fill-rule="evenodd" clip-rule="evenodd" d="M14.3792 7.45703H59.4528L69.6328 0.810811H232C233.91 0.810811 235.741 1.57963 237.091 2.94814C238.441 4.31665 239.2 6.17274 239.2 8.10811V43.3897L219.351 59.1892H8C6.09044 59.1892 4.25909 58.4204 2.90883 57.0519C1.55857 55.6834 0.8 53.8273 0.8 51.8919V19L14.3792 7.45703ZM232 0H69.3976L59.2168 6.64703H14.0672L0 18.6486V51.8919C0 56.37 3.5816 60 8 60H219.628L240 43.7838V8.10811C240 3.63081 236.418 0 232 0ZM126.156 29.0286L123.911 36.111H134.785L133.859 39.0405H119.926L123.659 27.1378L126.156 29.0286ZM143.419 23.5134L145.888 25.3483L142.436 36.1134H153.718L152.778 39.0421H141.693L139.069 37.0799L143.419 23.5134ZM179.965 28.4634L179.474 29.9569L190.685 29.9286L192.944 31.6069L191.148 37.2096L187.5 39.0437H173.581L174.507 36.1151H188.44L189.492 32.815H178.547V32.8013L176.107 30.9948L177.51 26.6432L177.517 26.6484L181.303 23.7773H195.123L194.198 26.65H177.519L179.965 28.4634ZM110.106 38.0111H107.183C106.953 38.0111 106.837 37.9528 106.737 37.763L101.913 29.6922V37.7046C101.913 37.8944 101.797 38.0111 101.596 38.0111H100.069C99.8535 38.0111 99.7527 37.8944 99.7527 37.7046V28.1022C99.7527 27.9125 99.8535 27.7957 100.069 27.7957H102.978C103.209 27.7957 103.324 27.8687 103.425 28.0438L108.249 36.1292V28.1022C108.249 27.9125 108.378 27.7957 108.58 27.7957H110.106C110.308 27.7957 110.423 27.9125 110.423 28.1022V37.7055C110.423 37.8952 110.308 38.0111 110.106 38.0111ZM96.3927 30.13V35.676C96.3927 37.2814 95.6439 38.0111 93.9879 38.0111H88.1991C86.5575 38.0111 85.7799 37.2814 85.7799 35.676V30.13C85.7799 28.5246 86.5575 27.7949 88.1991 27.7949H93.9879C95.6439 27.7949 96.3927 28.5246 96.3927 30.13ZM94.0599 35.0046V30.8022C94.0599 29.8973 93.8439 29.7076 92.7783 29.7076H89.3943C88.3287 29.7076 88.1127 29.8973 88.1127 30.8022V35.0055C88.1127 35.9103 88.3287 36.1 89.3943 36.1H92.7783C93.8439 36.1 94.0599 35.9095 94.0599 35.0046ZM71.3455 37.7046V29.7076H67.7743C67.5583 29.7076 67.4575 29.5909 67.4575 29.4011V28.1022C67.4575 27.9125 67.5583 27.7957 67.7743 27.7957H77.2351C77.4511 27.7957 77.5519 27.9125 77.5519 28.1022V29.4011C77.5519 29.5909 77.4511 29.7076 77.2351 29.7076H73.6783V37.7055C73.6783 37.8952 73.5487 38.0119 73.3471 38.0119H71.6623C71.4607 38.0119 71.3455 37.8944 71.3455 37.7046ZM60.7199 28.1022V36.0992H67.2863C67.4879 36.0992 67.6031 36.216 67.6031 36.4057V37.7046C67.6031 37.8944 67.4879 38.0111 67.2863 38.0111H58.7039C58.4879 38.0111 58.3871 37.8944 58.3871 37.7046V28.1022C58.3871 27.9125 58.4879 27.7957 58.7039 27.7957H60.3887C60.5903 27.7957 60.7199 27.9125 60.7199 28.1022ZM54.8639 28.1022V37.7046C54.8639 37.8944 54.7343 38.0111 54.5327 38.0111H52.8479C52.6319 38.0111 52.5311 37.8944 52.5311 37.7046V28.1022C52.5311 27.9125 52.6319 27.7957 52.8479 27.7957H54.5327C54.7343 27.7957 54.8639 27.9125 54.8639 28.1022ZM41.1879 28.1022V35.0046C41.1879 35.9095 41.3895 36.0992 42.4695 36.0992H45.4647C46.5447 36.0992 46.7607 35.9095 46.7607 35.0046V28.1022C46.7607 27.9125 46.8759 27.7957 47.0775 27.7957H48.7623C48.9639 27.7957 49.0935 27.9125 49.0935 28.1022V35.6768C49.0935 37.2822 48.3447 38.0119 46.6887 38.0119H41.2743C39.6183 38.0119 38.8551 37.2822 38.8551 35.6768V28.1022C38.8551 27.9125 38.9559 27.7957 39.1719 27.7957H40.8567C41.0727 27.7957 41.1879 27.9125 41.1879 28.1022ZM35.7431 30.6563C35.7431 31.9252 35.2967 32.6111 34.2887 32.8455C35.4119 33.049 35.8871 33.7349 35.8871 35.063V35.7344C35.8871 37.296 35.1671 38.0111 33.5399 38.0111H25.8935C25.6775 38.0111 25.5767 37.8944 25.5767 37.7046V28.1022C25.5767 27.9125 25.6775 27.7957 25.8935 27.7957H33.3815C35.0087 27.7957 35.7431 28.5109 35.7431 30.0725V30.6563ZM32.5031 33.7941H27.9095V36.0992H32.5031C33.3383 36.0992 33.5543 35.8949 33.5543 35.1652V34.7273C33.5543 33.9976 33.3383 33.7941 32.5031 33.7941ZM27.9095 29.7076V31.9252H32.3591C33.1799 31.9252 33.4103 31.7063 33.4103 30.9911V30.6409C33.4103 29.9111 33.1799 29.7068 32.3591 29.7068L27.9095 29.7076ZM214.423 26.6509L210.635 23.7773H196.617L195.705 26.65H203.1L199.129 39.0506H202.188L206.145 26.65L214.423 26.6509ZM162.116 23.7773L158.316 26.6481L158.309 26.6427L154.339 39.0433H157.397L160.779 28.4776L158.319 26.65H172.653L173.108 25.2382L169.752 35.7214L164.947 32.0257H160.541L169.339 39.0506H171.738L176.046 25.6122L173.578 23.7791L173.579 23.7773H162.116ZM136.37 31.2725L139.976 29.466L141.211 25.6122L138.741 23.7773H122.24L118.423 26.65H137.815L136.791 29.8925H129.017L128.259 32.239H136.033L133.858 39.0506L137.492 37.2165L138.797 33.1349L136.355 31.3146L136.37 31.2725Z" fill="#FCFC03"/>
</g>
<defs>
<clipPath id="clip0_6006_71826">
<rect width="240" height="60" fill="white"/>
</clipPath>
</defs>
</svg>
