<svg width="132" height="16" viewBox="0 0 132 16" fill="none" xmlns="http://www.w3.org/2000/svg">
<path fill-rule="evenodd" clip-rule="evenodd" d="M16.0919 1.79985H2.68937C2.45773 1.80104 2.2359 1.89282 2.07214 2.0551C1.90838 2.21739 1.81587 2.43712 1.81467 2.66668V13.3274C1.8162 13.5567 1.90892 13.7763 2.07258 13.9385C2.23623 14.1008 2.45784 14.1926 2.68937 14.1942H16.0919V16H2.68937C2.3357 16.0016 1.9853 15.9338 1.65822 15.8004C1.33124 15.667 1.03412 15.4708 0.784065 15.223C0.534013 14.9752 0.336047 14.6807 0.201379 14.3567C0.0668189 14.0325 -0.00160573 13.6853 2.86003e-05 13.3349V2.67424C-0.00160573 2.32375 0.0668189 1.9765 0.201379 1.65246C0.336047 1.32832 0.534013 1.03387 0.784065 0.786065C1.03412 0.53826 1.33124 0.342068 1.65822 0.208718C1.9853 0.0752594 2.3357 0.00745029 2.68937 0.00906993H16.0919V1.79985ZM41.2587 0V1.8059H28.3512V7.08354H38.7258V8.90445H28.3496V14.1912H41.2572V15.9971H26.5273V0H41.2587ZM67.8382 2.68765V7.37391C67.8403 7.72429 67.7717 8.07143 67.6366 8.39547C67.5015 8.7194 67.3043 9.01385 67.0537 9.26154C66.8042 9.50935 66.5067 9.70554 66.1799 9.839C65.853 9.97246 65.5022 10.0405 65.1492 10.0391H62.6846L67.7488 15.9909H65.3507L60.3083 10.0391H54.3857C54.0928 10.0243 53.8008 9.9947 53.511 9.95032V15.9909H51.6887V0.0224822H65.135C65.4891 0.0210785 65.8388 0.0891032 66.1657 0.222561C66.4937 0.356019 66.79 0.552211 67.0406 0.800016C67.2901 1.04782 67.4884 1.34216 67.6224 1.66609C67.7575 1.99013 67.8262 2.33727 67.8251 2.68765H67.8382ZM54.3918 8.21817H65.1492C65.2614 8.21957 65.3725 8.19874 65.4771 8.15673C65.5806 8.11484 65.6754 8.05275 65.755 7.97404C65.8345 7.89532 65.8966 7.80171 65.9391 7.6987C65.9816 7.59558 66.0023 7.48512 66.0012 7.37391V2.68765C66.0023 2.57482 65.9816 2.46263 65.9402 2.35778C65.8977 2.25294 65.8345 2.15738 65.755 2.07672C65.6776 1.99412 65.5839 1.92858 65.4793 1.88453C65.3747 1.84036 65.2614 1.81877 65.1481 1.82082H54.3903C54.1586 1.82201 53.9369 1.91379 53.773 2.07607C53.6093 2.23836 53.5168 2.4582 53.5156 2.68765V7.37391C53.5132 7.48664 53.535 7.5985 53.5795 7.70226C53.624 7.80603 53.6902 7.89932 53.7737 7.97587C53.8553 8.05491 53.9519 8.11711 54.0581 8.15868C54.1642 8.20036 54.2776 8.22055 54.3918 8.21817ZM93.606 0H77.4763V1.8059H84.6467V15.9985H86.4695V1.8059H93.606V0ZM103.383 0V15.991H105.205V0H103.383ZM131.756 0H129.424L123.422 7.08354H118.222V0H116.384V15.991H118.219V8.90596H123.418L129.424 15.991H131.777L125.01 7.9955L131.756 0Z" fill="white"/>
</svg>
