<svg width="220" height="65" viewBox="0 0 220 65" fill="none" xmlns="http://www.w3.org/2000/svg">
<path fill-rule="evenodd" clip-rule="evenodd" d="M27.6371 35.4556C28.1126 35.723 28.7368 35.6636 29.2717 35.3367C30.1038 34.8017 30.5199 33.7319 30.4605 32.3945V32.3351C30.4605 25.4105 24.903 19.7936 18.0973 19.7936C11.2916 19.7936 5.73416 25.4105 5.73416 32.3351C5.73416 34.3857 6.23938 36.4066 7.19039 38.2194L14.3527 26.7479C15.2146 25.4402 16.1061 25.3511 16.7005 25.5294C17.5921 25.7969 18.0676 26.6587 18.0973 28.1149V34.4451L21.307 29.3037C21.8122 28.4716 23.1793 26.2426 24.9921 26.7776C26.062 27.0748 26.6861 28.2338 26.6861 29.8387V33.1969C26.6861 34.2965 27.0428 35.0989 27.6371 35.4556ZM33.1946 32.2756V32.3351C33.3135 34.6829 32.3922 36.6443 30.6685 37.7737C29.2717 38.6355 27.5777 38.7247 26.2403 37.952C24.7544 37.1198 23.8925 35.3961 23.8925 33.2564V30.3439C23.8105 30.426 23.7426 30.5364 23.6693 30.6555C23.6364 30.709 23.6024 30.7642 23.5656 30.8194L20.0291 36.5552C18.8106 38.4869 17.6812 38.6355 16.9383 38.4275C16.1953 38.2194 15.3037 37.4765 15.3037 35.1881V30.4033L8.85467 40.7456C11.1133 43.3014 14.3824 44.9062 18.0379 44.9062C21.1584 44.9062 24.1897 43.6878 26.4484 41.548L26.4781 41.5183C27.0428 41.013 27.9046 41.0428 28.4098 41.6074C28.9448 42.1721 28.9151 43.0339 28.3504 43.5689C25.5568 46.2139 21.9311 47.6701 18.0973 47.6701C9.77596 47.6701 3 40.7753 3 32.3351C3 23.8651 9.77596 17 18.0973 17C26.3889 17 33.1649 23.8651 33.1946 32.2756ZM61.3937 25.7788C61.3937 25.2249 60.9915 24.5972 60.5527 24.3387C59.1633 23.3786 57.4814 22.8248 55.7264 22.8617C50.9731 22.8617 47.0974 26.8127 47.0974 31.6868C47.0974 36.5609 50.9731 40.5119 55.7264 40.5119C57.8105 40.5119 59.8215 39.6626 61.3206 38.3703C61.7228 38.1118 62.0518 37.6317 62.0518 37.0779C62.0518 36.2286 61.3937 35.5639 60.5527 35.5639C60.2237 35.5639 59.8946 35.6747 59.6387 35.8593C58.6149 36.8563 57.2255 37.4841 55.6898 37.4841C52.6185 37.4841 50.4613 34.9731 50.4613 31.7976C50.4613 28.622 52.5819 26.0742 55.6898 26.0742C57.0061 26.0742 58.2493 26.5542 59.2365 27.2927C59.2925 27.304 59.3486 27.3188 59.4057 27.3339C59.5348 27.368 59.6694 27.4035 59.8215 27.4035C60.6624 27.4035 61.3937 26.665 61.3937 25.7788ZM75.2146 34.2346C75.2146 30.8006 72.5089 28.0312 69.2548 28.0312C65.8544 28.0312 63.039 30.8006 63.039 34.2346C63.039 37.6687 65.8544 40.5488 69.2548 40.5488C72.4724 40.5488 75.2146 37.6318 75.2146 34.2346ZM71.8508 34.2716C71.8508 36.1178 70.6442 37.4841 69.2183 37.4841C67.6826 37.4841 66.4029 36.0809 66.4029 34.2716C66.4029 32.3884 67.6826 31.2437 69.2183 31.2437C70.6442 31.2437 71.8508 32.4253 71.8508 34.2716ZM77.2622 29.9144V38.6287C77.2622 39.5519 78.03 40.3642 78.9441 40.3642C79.8582 40.3642 80.626 39.5888 80.626 38.6287V29.9144C80.626 28.9543 79.8582 28.1789 78.9441 28.1789C77.9934 28.1789 77.2622 28.9543 77.2622 29.9144ZM78.9441 22.8617C77.8838 22.8617 77.0062 23.7479 77.0062 24.8926C77.0062 25.9634 77.8472 26.8496 78.9441 26.8865C80.041 26.8865 80.9185 26.0003 80.9185 24.8926C80.9185 23.7848 80.041 22.8617 78.9441 22.8617ZM87.0612 38.6287V33.9023C87.0612 32.4253 87.6827 31.1698 89.1818 31.1698C91.3025 31.1698 91.4853 32.4253 91.4853 33.9023V38.6287C91.4853 39.5888 92.2531 40.3642 93.1672 40.3642C94.0813 40.3642 94.8491 39.5888 94.8491 38.6287V33.4961C94.8491 30.5791 93.3501 28.0312 89.9862 28.0312C88.8528 28.0312 87.6462 28.2158 86.2933 29.5082C86.2933 28.8066 85.7449 28.1789 85.0136 28.1789C84.2823 28.1789 83.6973 28.7697 83.6973 29.5082V38.6287C83.6973 39.5888 84.4652 40.3642 85.3792 40.3642C86.2933 40.3642 87.0612 39.5888 87.0612 38.6287ZM104.867 35.2685C105.087 35.527 105.343 35.7116 105.745 35.7116C106.074 35.7116 106.33 35.527 106.623 35.2685L110.535 30.9852V38.6287C110.535 39.5888 111.303 40.3642 112.217 40.3642C113.167 40.3642 113.899 39.5888 113.899 38.6287V23.4894C113.826 23.2309 113.57 23.0463 113.277 23.0463C112.977 23.0463 112.769 23.2608 112.596 23.4386C112.579 23.456 112.562 23.473 112.546 23.4894L106.293 30.579C106.111 30.8006 105.855 30.9114 105.745 30.9114C105.599 30.9114 105.379 30.8006 105.197 30.579L98.9442 23.4894C98.7614 23.3048 98.5055 23.0463 98.213 23.0463C97.957 23.0463 97.7011 23.2309 97.5914 23.4894V38.6287C97.5914 39.5888 98.3592 40.3642 99.2733 40.3642C100.187 40.3642 100.955 39.5888 100.955 38.6287V30.9852L104.867 35.2685ZM124.685 34.2716C124.685 36.1178 123.405 37.4841 121.906 37.4841C120.407 37.4841 119.237 36.044 119.237 34.2716C119.237 32.4622 120.443 31.2068 121.906 31.2068C123.369 31.2068 124.685 32.4253 124.685 34.2716ZM125.416 38.6287L125.489 39.0349C125.489 39.7365 126.038 40.3642 126.805 40.3273C127.537 40.3273 128.122 39.7365 128.122 38.998V29.4713C128.122 28.7697 127.537 28.142 126.805 28.142C126.074 28.142 125.526 28.7328 125.526 29.4713L125.453 29.8775C123.99 28.142 122.089 27.9943 121.54 27.9943C118.25 27.9943 115.873 30.8006 115.873 34.1977C115.873 37.6318 118.213 40.5119 121.358 40.5119C122.674 40.5119 124.758 39.9211 125.416 38.6287ZM137.007 31.1698H137.372C138.177 31.1698 138.908 30.4314 138.871 29.619C138.871 28.7328 138.14 28.0312 137.336 28.0312H137.007C135.983 28.0681 134.959 28.3266 133.716 29.5082C133.716 28.8066 133.168 28.1789 132.436 28.1789C131.705 28.1789 131.12 28.7697 131.12 29.5082V38.6287C131.12 39.5888 131.888 40.3642 132.802 40.3642C133.716 40.3642 134.484 39.5888 134.484 38.6287V33.9023C134.484 32.4992 134.886 31.2806 137.007 31.1698ZM150.608 38.6287C150.608 38.3333 150.499 38.0749 150.352 37.8164L147.208 33.9762L150.279 30.579C150.425 30.3575 150.499 30.0621 150.499 29.8036C150.499 28.9174 149.731 28.142 148.89 28.142C148.305 28.142 147.829 28.622 147.427 29.0651L143.551 33.3854V24.7449C143.551 23.7848 142.82 23.0094 141.87 23.0094C140.919 23.0094 140.188 23.7848 140.188 24.7449V38.5918C140.188 39.5519 140.956 40.3273 141.87 40.3273C142.784 40.3273 143.551 39.5519 143.551 38.5918V34.8254L147.427 39.3672C147.829 39.8842 148.341 40.3273 148.926 40.3273C149.804 40.3273 150.608 39.5149 150.608 38.6287ZM154.521 33.1269C154.521 31.6868 156.02 31.2068 156.934 31.2068C157.811 31.2068 159.347 31.6868 159.383 33.1269H154.521ZM154.521 35.3055H161.321C162.053 35.3055 162.638 34.6777 162.638 33.9762C162.564 30.1729 160.115 28.0312 156.861 28.0312C152.839 28.0312 151.12 30.9852 151.12 34.3823C151.12 38.7026 153.935 40.5488 157.336 40.5488C158.616 40.5488 159.968 40.3642 160.992 39.5888C161.394 39.3303 161.723 38.8872 161.723 38.3703C161.723 37.5948 161.102 36.9671 160.371 36.9671C160.042 36.9671 159.712 37.0779 159.493 37.2256C158.798 37.5579 157.921 37.6687 157.299 37.6687C156.458 37.6687 154.521 37.3364 154.521 35.3055ZM169.767 40.5119H170.681C171.486 40.5119 172.181 39.8103 172.181 38.998C172.181 38.1487 171.486 37.4841 170.681 37.4841H170.206C169.182 37.4841 169.073 37.004 169.073 34.6777V31.1698H170.462C171.23 31.1698 171.961 30.4314 171.961 29.619C171.961 28.7328 171.266 28.0312 170.462 28.0312H169.073V24.8187C169.073 23.8587 168.305 23.0832 167.391 23.0832C166.44 23.0832 165.709 23.8587 165.709 24.8187V28.0312H164.831C164.064 28.0312 163.332 28.7328 163.332 29.619C163.332 30.4314 164.027 31.1698 164.831 31.1698H165.709V35.3424C165.709 39.3672 167.208 40.5119 169.767 40.5119ZM187.793 25.7788C187.793 25.2249 187.391 24.5972 186.952 24.3387C185.599 23.3786 183.881 22.8248 182.126 22.8617C177.373 22.8617 173.497 26.8127 173.497 31.6868C173.497 36.5609 177.373 40.5119 182.126 40.5119C184.21 40.5119 186.221 39.6626 187.72 38.3703C188.122 38.1118 188.451 37.6317 188.451 37.0779C188.451 36.2286 187.793 35.5639 186.952 35.5639C186.623 35.5639 186.294 35.6747 186.038 35.8593C185.014 36.8563 183.625 37.4841 182.089 37.4841C179.018 37.4841 176.861 34.9731 176.861 31.7976C176.861 28.622 178.981 26.0742 182.089 26.0742C183.406 26.0742 184.649 26.5542 185.636 27.2927C185.692 27.304 185.748 27.3188 185.805 27.3339C185.934 27.368 186.069 27.4035 186.221 27.4035C187.062 27.4035 187.793 26.665 187.793 25.7788ZM198.25 34.2716C198.25 36.1178 196.971 37.4841 195.471 37.4841C194.009 37.4841 192.802 36.044 192.802 34.2716C192.802 32.4622 193.972 31.2068 195.471 31.2068C196.934 31.2068 198.25 32.4253 198.25 34.2716ZM198.982 38.6287L199.055 39.0349C199.055 39.7365 199.603 40.3642 200.371 40.3273C201.102 40.3273 201.687 39.7365 201.687 38.998V29.4713C201.687 28.7697 201.102 28.142 200.371 28.142C199.64 28.142 199.091 28.7328 199.091 29.4713L199.018 29.8775C197.556 28.142 195.654 27.9943 195.106 27.9943C191.815 27.9943 189.438 30.8006 189.438 34.1977C189.438 37.6318 191.779 40.5119 194.923 40.5119C196.239 40.5119 198.323 39.9211 198.982 38.6287ZM213.534 34.2716C213.534 36.044 212.364 37.4841 210.865 37.4841C209.365 37.4841 208.086 36.1178 208.086 34.2716C208.086 32.4253 209.365 31.2068 210.865 31.2068C212.327 31.2068 213.534 32.4253 213.534 34.2716ZM208.086 43.8352V39.5149C209 40.2165 210.462 40.5119 211.45 40.5488C214.631 40.5488 216.934 37.6318 216.934 34.2346C216.934 30.8006 214.521 28.0312 211.267 28.0312C210.097 28.0312 208.561 28.3635 207.318 29.6559C207.318 28.8066 206.769 28.1789 206.038 28.1789C205.307 28.1789 204.722 28.7697 204.722 29.5082V43.8352C204.722 44.7952 205.49 45.5707 206.404 45.5707C207.318 45.5707 208.086 44.7952 208.086 43.8352Z" fill="#62626B"/>
</svg>
