<svg width="220" height="65" viewBox="0 0 220 65" fill="none" xmlns="http://www.w3.org/2000/svg">
<path fill-rule="evenodd" clip-rule="evenodd" d="M30.1241 35.0899C28.4178 30.9343 27.5922 25.8706 28.1977 19.6922L32.2982 17.9309C36.4951 19.4033 40.3892 18.096 42.7284 15H45.4117C47.5858 17.8759 51.1084 19.2106 54.975 18.1924C54.3008 22.8984 51.3286 26.9163 47.2005 29.8473L46.9115 30.0537C47.4344 29.4207 47.7372 28.6088 47.7372 27.7419C47.7372 25.7192 46.0859 24.068 44.0632 24.068C42.0404 24.068 40.3892 25.7192 40.3892 27.7419C40.3892 29.0216 41.0497 30.15 42.0404 30.8105L41.779 32.8195C38.6279 34.1129 35.2016 34.8972 31.8028 35.0624C31.2387 35.0899 30.6883 35.1037 30.1241 35.0899ZM43.6368 49.3458C38.917 46.8414 33.7982 42.8372 30.7435 36.48C30.9275 36.48 31.1116 36.4766 31.2974 36.4732C31.4865 36.4697 31.6774 36.4662 31.8718 36.4662C35.1605 36.3011 38.4767 35.5993 41.559 34.416L41.2287 36.9754C41.1324 37.6083 41.7516 38.145 42.3846 38.145H45.5907C46.2237 38.145 46.8291 37.6083 46.7466 36.9754L46.1136 32.2143C46.7741 31.829 47.4071 31.4162 48.0125 30.9897C52.4984 27.7973 55.7182 23.394 56.3787 18.1652L59.9013 19.6925C61.5801 36.5763 52.4571 45.1352 44.4624 49.3458C44.4486 49.3595 44.0496 49.566 44.0496 49.566C44.0496 49.566 43.6505 49.3595 43.6368 49.3458Z" fill="#62626B"/>
<path fill-rule="evenodd" clip-rule="evenodd" d="M80.0203 23C84.859 23 86.8186 26.2684 86.9995 28.6051H83.6229C83.3516 27.6584 82.8386 25.8691 80.0504 25.8691C78.4225 25.8691 76.0408 26.9339 76.0408 31.415C76.0408 34.2693 77.1864 36.8278 80.0504 36.8278C81.9196 36.8278 83.2159 35.7926 83.6229 33.8404H86.9995C86.3211 37.2863 84.0299 39.6969 79.9751 39.6969C75.679 39.6969 72.5889 36.8426 72.5889 31.3706C72.5889 25.8247 75.8599 23 80.0203 23ZM132.658 27.2149C135.869 27.2149 138.778 29.1523 138.778 33.3967C138.778 37.6264 135.884 39.5786 132.658 39.5786C129.447 39.5786 126.538 37.6412 126.538 33.3967C126.538 29.1523 129.447 27.2149 132.658 27.2149ZM132.658 36.9757C135.085 36.9757 135.537 34.8904 135.537 33.3967C135.537 31.8883 135.1 29.8178 132.658 29.8178C130.231 29.8178 129.779 31.8883 129.779 33.3967C129.779 34.9052 130.231 36.9757 132.658 36.9757ZM121.187 24.331H124.337V27.5107H126.297V29.7143H124.337V36.1032C124.337 36.7835 124.368 37.0497 125.649 37.0497C125.775 37.0497 125.914 37.0373 126.058 37.0246C126.137 37.0176 126.217 37.0105 126.297 37.0053V39.342C125.8 39.3716 125.302 39.3863 124.805 39.3863H124.398C121.684 39.3863 121.187 38.3659 121.187 36.8426V29.7143H119.574V27.5107H121.187V24.331ZM91.0694 39.268H87.9341V27.5107H90.9488V29.5368H90.994C91.6422 28.3537 92.3658 27.2001 94.2801 27.2001C94.4131 27.2001 94.553 27.2137 94.6904 27.2271C94.7555 27.2334 94.8201 27.2397 94.8831 27.2445V30.3798C94.6118 30.3354 94.2651 30.3354 93.9787 30.3354C91.5217 30.3354 91.0694 31.8439 91.0694 33.1453V39.268ZM103.899 27.5248H107.23L103.13 39.0751C101.638 43.4231 101.231 43.9999 98.4873 43.9999C98.1964 43.9999 97.8482 43.9858 97.5118 43.9722C97.3602 43.9661 97.2109 43.9601 97.0704 43.9555V41.4857C97.0929 41.4882 97.117 41.491 97.1429 41.4941C97.2731 41.5095 97.447 41.5301 97.6733 41.5301C98.819 41.5301 99.437 41.3674 99.7385 39.7554L95.3218 27.5248H98.834L101.397 36.1764H101.442L103.899 27.5248ZM110.877 33.6622C110.877 31.7839 111.389 29.8909 113.56 29.8909C115.565 29.8909 116.243 31.636 116.243 33.4847C116.243 34.8749 115.685 37.0341 113.65 37.0341C111.63 37.0341 110.877 35.3925 110.877 33.6622ZM110.847 27.5247H107.862V43.8666H110.997V37.7735H111.043C111.419 38.4095 112.218 39.5778 114.419 39.5778C117.977 39.5778 119.454 36.4869 119.454 33.2628C119.454 29.1958 117.117 27.2141 114.479 27.2141C112.369 27.2141 111.48 28.2937 110.892 29.2254H110.847V27.5247ZM147.236 39.2675H140.242V23.3988H147.372C152.813 23.3988 153.944 27.9538 153.944 30.956C153.944 34.3723 152.572 39.2675 147.236 39.2675ZM184.258 27.5249H187.589L183.474 39.0752C181.981 43.4232 181.574 44 178.831 44C178.54 44 178.192 43.9859 177.855 43.9724C177.704 43.9662 177.555 43.9602 177.414 43.9556V41.4859C177.445 41.4889 177.478 41.4925 177.512 41.4964C177.648 41.5115 177.816 41.5302 178.032 41.5302C179.178 41.5302 179.811 41.3675 180.097 39.7555L175.681 27.5249H179.193L181.755 36.1766H181.801L184.258 27.5249ZM171.475 23.4135H174.625V39.2675H171.475V23.4135ZM166.425 39.2675V27.5249H169.576V39.2675H166.425ZM166.425 23.2509H169.576V26.12H166.425V23.2509ZM159.958 27.1996C161.647 27.1996 164.737 27.7024 164.737 30.6011H164.752V36.9752C164.752 38.3653 165.069 38.6759 165.445 38.809V39.2527H162.054C161.873 38.7055 161.828 38.528 161.752 37.8625C161.029 38.5872 160.019 39.5633 157.878 39.5633C156.069 39.5633 154.23 38.5576 154.23 36.1322C154.23 33.8399 155.708 32.6567 157.712 32.3758L160.546 31.9617C161.044 31.8877 161.647 31.6955 161.647 31.0299C161.647 29.7433 160.396 29.6693 159.582 29.6693C158.014 29.6693 157.743 30.6306 157.652 31.3109H154.607C154.969 27.7024 157.501 27.1996 159.958 27.1996ZM158.828 37.3745C160.23 37.3745 161.647 36.4871 161.647 35.0526V33.5589C161.33 33.7955 160.803 33.9878 159.506 34.1948C158.331 34.3871 157.366 34.6681 157.366 35.9547C157.366 37.0491 158.225 37.3745 158.828 37.3745ZM146.784 26.1495H143.543V36.5315H146.829C149.573 36.5315 150.492 33.8103 150.492 31.2074C150.492 26.5341 148.231 26.1495 146.784 26.1495Z" fill="#62626B"/>
</svg>
