<svg width="220" height="65" viewBox="0 0 220 65" fill="none" xmlns="http://www.w3.org/2000/svg">
<path fill-rule="evenodd" clip-rule="evenodd" d="M53.9955 24.212V27.46H52.9722C49.7853 27.46 47.7362 29.7013 47.7362 33.0638V40.6836H44.2082V24.436H47.7362V28.5825C48.3064 26.1173 49.8998 24.1 52.9722 24.1C53.3133 24.1 53.6544 24.1 53.9955 24.212ZM73.3524 24.4271L66.4542 40.6735L63.8527 46.5H60.4596L63.1744 40.4495L56.3882 24.4258H59.8946L64.7576 36.4149L69.734 24.3151H73.3524V24.4271ZM93.5798 32.5C93.5798 38.1 89.5096 40.9 85.666 40.9C82.7273 40.9 80.5802 39.332 80.0151 37.988H79.9006V46.5H76.398V24.436H79.9018V27.012H80.0151C80.5802 25.78 82.7273 24.1 85.666 24.1C89.6229 24.1 93.5798 26.9 93.5798 32.5ZM90.188 32.5C90.188 29.028 87.5878 27.236 84.9889 27.236C82.3887 27.236 79.7886 29.028 79.7886 32.5C79.7886 35.972 82.3887 37.764 84.9889 37.764C87.7011 37.764 90.188 35.972 90.188 32.5ZM101.618 35.9885V27.1558H104.775V24.3596H101.504V20.2233H98.0089V24.3609H95.7524V27.1545H98.0102V36.5485C98.0102 39.4555 99.8137 40.6849 102.295 40.6849C103.197 40.6849 104.325 40.4609 104.889 40.0142V37.33C104.325 37.554 103.762 37.666 103.423 37.666C102.07 37.666 101.618 36.8833 101.618 35.9885ZM107.716 32.5C107.716 27.012 111.986 24.1 116.141 24.1C120.411 24.1 124.681 27.012 124.681 32.5C124.681 37.988 120.411 40.9 116.141 40.9C111.986 40.9 107.716 37.988 107.716 32.5ZM121.198 32.5C121.198 29.14 118.838 27.236 116.143 27.236C113.446 27.236 111.087 29.14 111.087 32.5C111.087 35.86 113.558 37.764 116.143 37.764C118.726 37.764 121.198 35.86 121.198 32.5ZM137.948 24.212V27.46H136.924C133.737 27.46 131.688 29.7013 131.688 33.0638V40.6836H128.161V24.436H131.689V28.5825C132.258 26.1173 133.85 24.1 136.924 24.1C137.265 24.1 137.606 24.1 137.948 24.212ZM176.226 31.156V40.6836H172.728V31.7173C172.728 28.9147 171.149 27.3455 168.779 27.3455C166.409 27.3455 164.716 28.9147 164.716 31.7173V40.6836H161.219V24.5429H164.716V27.0095C165.62 25.5522 167.311 24.3189 169.907 24.3189C173.405 24.2069 176.226 26.3362 176.226 31.156ZM186.149 34.0744L183.879 36.5396V40.6849H180.358V18.5H183.879V32.0571L190.805 24.4385H195.006L188.306 31.7211L195.8 40.6849H191.827L186.149 34.0744ZM157.739 32.3715V24.0071H154.235V26.5996H154.122C153.557 25.2467 151.409 23.6698 148.471 23.6698C144.628 23.6698 140.557 26.4864 140.557 32.1207C140.557 37.7551 144.626 40.5716 148.47 40.6849C148.879 40.6849 149.272 40.6518 149.647 40.592C150.355 40.158 151.136 39.4644 152.069 38.4118C151.59 38.3394 151.19 38.285 150.844 38.2379L150.682 38.2158C149.339 38.0351 148.787 37.96 147.172 37.3847C146.35 37.092 144.896 35.7913 144.461 34.5695C144.136 33.8758 143.948 33.06 143.948 32.1207C143.948 28.6271 146.548 26.8249 149.148 26.8249C151.749 26.8249 154.349 28.6271 154.349 32.1195L154.347 32.2315C155.623 32.2747 156.815 32.3269 157.739 32.3715ZM31.2532 37.6291C30.4564 37.3262 29.633 36.8719 29.045 36.1973C28.1678 35.1661 27.6884 33.8551 27.6933 32.5013C27.6933 29.1413 30.0606 27.236 32.7639 27.236C34.1168 27.236 35.4684 27.684 36.3708 28.692C36.6381 28.9593 36.8544 29.2355 37.0275 29.5168L37.6613 29.2775C38.5395 28.9466 39.4164 28.6144 40.2946 28.2759C38.7673 25.5306 35.7663 24.1 32.7639 24.1C28.4824 24.1 24.1997 27.012 24.1997 32.5C24.1997 37.9002 28.3437 40.8071 32.5552 40.9C33.2933 40.2764 34.1333 39.43 34.7595 38.7975L35.1935 38.3597C33.7426 38.3597 32.2917 38.1166 31.2532 37.6291ZM40.0644 38.4956L35.0989 33.815L33.3198 35.5445L36.5474 38.5666L33.5867 41.7722L35.3611 43.4906L40.0644 38.4956ZM152.11 33.3859L157.075 38.0642L152.37 43.0596L150.598 41.3404L153.557 38.1353L150.328 35.1121L152.11 33.3859Z" fill="#6F6F7F"/>
</svg>
