<svg width="132" height="15" viewBox="0 0 132 15" fill="none" xmlns="http://www.w3.org/2000/svg">
<path fill-rule="evenodd" clip-rule="evenodd" d="M15.0846 0V5.45426H3.77188V0H0V15H3.77188V9.54574H15.0846V15H18.8565V0H15.0846ZM82.9702 9.54574H71.6553V15H67.8835V0H71.6553V5.45426H82.971V0H86.7428V5.45426L82.9715 9.54512H86.742V14.9994H82.9702V9.54574ZM38.9715 0H22.6276V15H26.3995V9.54574H37.7151V15H41.487V0H38.9715ZM26.3995 5.45426V4.09148H37.7151V5.45426H26.3995ZM64.1174 0V4.09148H49.0299V10.9085H64.1174V15H49.0299H47.7736H45.258V0H47.7736H49.0299H64.1174ZM109.373 4.09148V0H94.2851H93.0287H90.5161V15H93.0287H94.2851H109.373V10.9085H94.2851V9.54574H109.373V5.45426H94.2851V4.09148H109.373ZM128.228 9.54574V0H132V15H128.228L116.915 5.45426V15H113.143V0H116.915L128.228 9.54574Z" fill="white"/>
</svg>
