<svg width="42" height="42" viewBox="0 0 42 42" fill="none" xmlns="http://www.w3.org/2000/svg">
<path d="M38.7051 26.1798L30.6381 12.1872C28.8698 9.26994 24.5573 9.2401 22.8502 12.3111L14.3803 26.8633C12.7985 29.5314 14.7534 32.8814 17.9184 32.8814H34.8894C38.0843 32.8814 40.4734 29.4374 38.7051 26.1798Z" fill="#2C2C3B"/>
<path d="M27.0697 27.2675L26.5728 26.399C26.1072 25.5917 25.0835 23.8548 25.0835 23.8548L18.2581 12.002C16.4898 9.36528 12.3011 9.14741 10.5328 12.4676L2.58973 26.2125C0.9453 29.0985 2.90011 32.8514 6.46802 32.8827H23.3466H30.5451H34.8263C30.4526 32.9141 29.0558 30.6489 27.0697 27.2675Z" fill="white"/>
<path d="M27.0718 27.267L26.5749 26.3985C26.1093 25.5912 25.0856 23.8542 25.0856 23.8542L20.6791 16.0977L14.3491 26.8954C12.7673 29.5635 14.7221 32.915 17.8856 32.915H23.3159H30.5143H34.8269C30.4218 32.8822 29.0564 30.6483 27.0718 27.267Z" fill="url(#paint0_linear_6006_71848)"/>
<defs>
<linearGradient id="paint0_linear_6006_71848" x1="17.9966" y1="16.0977" x2="26.63" y2="34.6118" gradientUnits="userSpaceOnUse">
<stop stop-color="white"/>
<stop offset="0.280731" stop-color="#ECEEF4"/>
<stop offset="0.659431" stop-color="#BDC2D9"/>
<stop offset="0.876973" stop-color="#959EC8"/>
</linearGradient>
</defs>
</svg>
