<svg width="30" height="30" viewBox="0 0 30 30" fill="none" xmlns="http://www.w3.org/2000/svg">
<g clip-path="url(#clip0_2558_12259)">
<path fill-rule="evenodd" clip-rule="evenodd" d="M15 30C23.2843 30 30 23.2843 30 15C30 6.71573 23.2843 0 15 0C6.71573 0 0 6.71573 0 15C0 23.2843 6.71573 30 15 30ZM15.144 6.15591C15.0993 6.12924 15.0513 6.11591 15 6.11591V6.10991C14.9485 6.11253 14.8986 6.12837 14.855 6.15591L7.04266 10.5156C6.99953 10.5393 6.96342 10.574 6.93797 10.6161C6.91251 10.6582 6.89861 10.7063 6.89768 10.7555V19.2428C6.8968 19.2922 6.90998 19.3407 6.93567 19.3828C6.9624 19.4249 6.99917 19.4596 7.04266 19.4838L8.33045 20.2041L12.0833 10.2276C12.1071 10.1622 12.1504 10.1057 12.2073 10.0656C12.266 10.0245 12.3357 10.0019 12.4073 10.0006H14.3602L14.3522 9.99964C14.3809 10.0001 14.4091 10.0071 14.4348 10.0201C14.4604 10.0331 14.4828 10.0518 14.5001 10.0746C14.5163 10.0972 14.5267 10.1235 14.5303 10.151C14.534 10.1786 14.5308 10.2066 14.5211 10.2326L10.3404 21.3283L10.3435 21.3301L10.6306 20.5767L11.3644 21.1605L15.4941 10.2226C15.5187 10.1577 15.5627 10.1018 15.6201 10.0626C15.6785 10.023 15.7474 10.0014 15.818 10.0006H17.7619C17.7903 10.0011 17.8182 10.0076 17.8439 10.0196C17.8806 10.0389 17.9091 10.0709 17.9239 10.1096C17.9392 10.1478 17.9392 10.1904 17.9239 10.2286L13.1482 22.8988L14.855 23.8535C14.8993 23.8778 14.949 23.8906 14.9995 23.8906C15.05 23.8906 15.0997 23.8778 15.144 23.8535L16.8632 22.8901L15.5377 19.4059C15.522 19.3688 15.5139 19.3291 15.5139 19.2889C15.5139 19.2487 15.522 19.2089 15.5377 19.1719L16.5506 16.5221C16.5637 16.4906 16.586 16.4638 16.6146 16.4451C16.6438 16.4262 16.6778 16.4161 16.7126 16.4161C16.7474 16.4161 16.7814 16.4262 16.8106 16.4451C16.839 16.4635 16.8613 16.49 16.8746 16.5211L18.8746 21.763L19.6727 21.3158L17.2396 14.9392C17.224 14.9023 17.216 14.8627 17.216 14.8227C17.216 14.7827 17.224 14.7431 17.2396 14.7062L18.2525 12.0565C18.265 12.0243 18.287 11.9968 18.3155 11.9775C18.3448 11.9583 18.379 11.9481 18.414 11.9481C18.449 11.9481 18.4832 11.9583 18.5125 11.9775C18.5413 11.9966 18.5637 12.0242 18.5765 12.0565V12.0495L21.6812 20.1904L22.9564 19.4758C22.9994 19.4517 23.0358 19.4174 23.0624 19.3758C23.088 19.3344 23.1016 19.2866 23.1014 19.2378V10.7555C23.1014 10.7062 23.0887 10.6595 23.0634 10.6155C23.0365 10.5739 22.9998 10.5395 22.9564 10.5156L15.144 6.15591ZM12.7393 23.9834L14.2071 24.7944C14.4494 24.9292 14.7222 25 14.9995 25C15.2769 25 15.5496 24.9292 15.792 24.7944L19.0484 22.9954L19.2934 22.8606L19.2932 22.8601L23.4663 20.5547C23.7063 20.425 23.9073 20.2333 24.0483 19.9998C24.1883 19.7678 24.2603 19.5048 24.2583 19.2378V10.7555C24.2563 10.4858 24.1816 10.2215 24.0421 9.99064C23.9025 9.75976 23.7033 9.57079 23.4653 9.44364L15.792 5.20398C15.5485 5.07256 15.2767 5.00254 15 5C14.728 5 14.4501 5.07099 14.2071 5.20498L6.53371 9.44364C6.29513 9.57421 6.09512 9.76526 5.95375 9.99759C5.81516 10.2262 5.74152 10.4882 5.74077 10.7555V19.2378C5.74077 19.7778 6.04175 20.2828 6.53371 20.5547L10.4267 22.7057L10.7246 22.8716L10.7255 22.8708L12.7272 23.9767L12.7393 23.9835L12.7393 23.9834Z" fill="url(#paint0_linear_2558_12259)"/>
</g>
<defs>
<linearGradient id="paint0_linear_2558_12259" x1="6" y1="2.5332e-07" x2="23.5" y2="30" gradientUnits="userSpaceOnUse">
<stop stop-color="white"/>
<stop offset="0.280731" stop-color="#ECEEF4"/>
<stop offset="0.659431" stop-color="#BDC2D9"/>
<stop offset="0.876973" stop-color="#959EC8"/>
</linearGradient>
<clipPath id="clip0_2558_12259">
<rect width="30" height="30" fill="white"/>
</clipPath>
</defs>
</svg>
