<svg width="30" height="30" viewBox="0 0 30 30" fill="none" xmlns="http://www.w3.org/2000/svg">
<rect x="0.5" y="0.5" width="29" height="29" rx="14.5" fill="#8247E5"/>
<rect x="0.5" y="0.5" width="29" height="29" rx="14.5" stroke="black"/>
<circle cx="15" cy="15" r="15" fill="url(#paint0_linear_6006_71867)"/>
<g clip-path="url(#clip0_6006_71867)">
<path d="M19.6737 11.9275C19.3454 11.7399 18.9232 11.7399 18.5479 11.9275L15.9211 13.4755L14.1385 14.4606L11.5586 16.0085C11.2302 16.1962 10.8081 16.1962 10.4328 16.0085L8.41573 14.7889C8.08737 14.6013 7.85283 14.226 7.85283 13.8038V11.4584C7.85283 11.0832 8.04046 10.7079 8.41573 10.4733L10.4328 9.30064C10.7611 9.113 11.1833 9.113 11.5586 9.30064L13.5756 10.5203C13.904 10.7079 14.1385 11.0832 14.1385 11.5053V13.0533L15.9211 12.0213V10.4264C15.9211 10.0512 15.7334 9.6759 15.3582 9.44136L11.6055 7.23667C11.2771 7.04904 10.855 7.04904 10.4797 7.23667L6.63321 9.48827C6.25795 9.6759 6.07031 10.0512 6.07031 10.4264V14.8358C6.07031 15.2111 6.25795 15.5864 6.63321 15.8209L10.4328 18.0256C10.7611 18.2132 11.1833 18.2132 11.5586 18.0256L14.1385 16.5245L15.9211 15.4925L18.501 13.9915C18.8294 13.8038 19.2515 13.8038 19.6268 13.9915L21.6439 15.1642C21.9722 15.3518 22.2068 15.7271 22.2068 16.1493V18.4947C22.2068 18.8699 22.0191 19.2452 21.6439 19.4797L19.6737 20.6525C19.3454 20.8401 18.9232 20.8401 18.5479 20.6525L16.5309 19.4797C16.2025 19.2921 15.968 18.9168 15.968 18.4947V16.9936L14.1854 18.0256V19.5736C14.1854 19.9488 14.3731 20.3241 14.7483 20.5586L18.5479 22.7633C18.8763 22.951 19.2985 22.951 19.6737 22.7633L23.4733 20.5586C23.8017 20.371 24.0362 19.9957 24.0362 19.5736V15.1173C24.0362 14.742 23.8486 14.3667 23.4733 14.1322L19.6737 11.9275Z" fill="#080811"/>
</g>
<defs>
<linearGradient id="paint0_linear_6006_71867" x1="6" y1="2.5332e-07" x2="23.5" y2="30" gradientUnits="userSpaceOnUse">
<stop stop-color="white"/>
<stop offset="0.280731" stop-color="#ECEEF4"/>
<stop offset="0.659431" stop-color="#BDC2D9"/>
<stop offset="0.876973" stop-color="#959EC8"/>
</linearGradient>
<clipPath id="clip0_6006_71867">
<rect width="18.0128" height="15.7143" fill="white" transform="translate(6.07031 7.14282)"/>
</clipPath>
</defs>
</svg>
