<svg width="30" height="30" viewBox="0 0 30 30" fill="none" xmlns="http://www.w3.org/2000/svg">
<rect width="30" height="30" rx="15" fill="url(#paint0_linear_6006_71862)"/>
<path d="M11.8927 13.7233L15 10.616L18.1088 13.7247L19.9167 11.9167L15 7L10.0848 11.9152L11.8927 13.7232L11.8927 13.7233ZM7 15L8.80806 13.1917L10.616 14.9996L8.80793 16.8077L7 15ZM11.8927 16.2769L15 19.384L18.1087 16.2754L19.9176 18.0824L19.9167 18.0834L15 23L10.0848 18.0848L10.0822 18.0822L11.8928 16.2767L11.8927 16.2769ZM19.384 15.0008L21.192 13.1927L22.9999 15.0006L21.1919 16.8087L19.384 15.0008Z" fill="#080810"/>
<path d="M16.8334 14.9987H16.8341L14.9996 13.1641L13.6437 14.5196L13.4879 14.6755L13.1666 14.9968L13.1641 14.9993L13.1666 15.002L14.9996 16.8352L16.8343 15.0006L16.8352 14.9996L16.8335 14.9987" fill="#080810"/>
<defs>
<linearGradient id="paint0_linear_6006_71862" x1="6" y1="2.5332e-07" x2="23.5" y2="30" gradientUnits="userSpaceOnUse">
<stop stop-color="white"/>
<stop offset="0.280731" stop-color="#ECEEF4"/>
<stop offset="0.659431" stop-color="#BDC2D9"/>
<stop offset="0.876973" stop-color="#959EC8"/>
</linearGradient>
</defs>
</svg>
